<svg width="44" height="44" viewBox="0 0 44 44" fill="#FBF2EE" xmlns="http://www.w3.org/2000/svg">
    <path d="M39.9890747,22.2162696c.0007935-.072876.0109253-.1433105.0109253-.2163696,0-.0748291-.010376-.1470337-.0111694-.2216797-.0061035-.5703125-.0291138-1.137146-.0857544-1.697876-.020874-.2189941-.0584106-.4324341-.0863037-.649353-.0385742-.2839966-.0784302-.5678711-.1296997-.8499146-1.4456787-8.3752441-8.0872803-14.9503784-16.4940796-16.3026733-.2532959-.0420532-.5064697-.0836792-.7589722-.1158447-.237915-.0288696-.4758301-.055481-.7162476-.0759277-.5334473-.0484619-1.0641479-.0750122-1.5917969-.0803833-.0424805-.0002441-.0834351-.0063477-.1259766-.0063477-.0494385,0-.0971069.007019-.1464844.0073853-.6325684.0022583-1.2599487.0331421-1.8806763.0949707-.0150757.0015259-.0299683.00354-.0450439.0050659-2.6282349.2680054-5.1345825,1.0565796-7.3966675,2.2754517-.0305786.0164795-.0618896.0314331-.0923462.0480347-.5250244.286377-1.0344849.5988159-1.531189.9302979-.0464478.0310059-.09375.0605469-.1398926.09198-.4896851.3327026-.9627686.6882935-1.4213257,1.0628052-.0390015.0319214-.0783691.0632324-.1171265.095459-.465271.3858032-.9125366.7928467-1.3417969,1.2195435-.019104.019043-.0380859.0380249-.0570679.0570679-2.2284546,2.232666-3.9439087,5.000061-4.9191284,8.1314697-.0057373.0183105-.0119629.0363159-.0176392.0546265-.1787109.5797119-.3300171,1.1722412-.456543,1.7755737-.0162964.0771484-.0324097.1540527-.0478516.2315063-.1123657.5692749-.201355,1.147644-.2648315,1.7355347-.0115967.1063843-.0203857.2131958-.0302734.3201294-.0154419.1675415-.0361938.333252-.0475464.5021973-.0292358.43573-.0415039.8677368-.043335,1.2971802-.000061.0214844-.0032349.0421753-.0032349.0637207,0,.0462646.0065918.0908203.006897.1370239.0073853,1.317749.1421509,2.6025391.3919678,3.8449707.005188.0257568.0095215.0516968.0148315.0774536.1297607.6325684.2907104,1.2528687.4786377,1.8613892.0054932.0175781.0109253.0350952.0164185.0526733.7752075,2.4849243,2.0206299,4.7546997,3.6311646,6.7120972.0171509.020874.0339355.0419922.0512085.0628052.3874512.467041.7952271.9156494,1.2227173,1.3452148.0350952.0353394.0706787.0697632.1060181.1047974.4257812.4215698.8676758.8262939,1.3294678,1.208374.0310059.0256348.0631714.0496216.0942993.0751343.9349976.7642212,1.9396973,1.4438477,3.0023193,2.0307617.0634766.0350342.1254272.0719604.1893311.1063843.5020142.2701416,1.0178223.5163574,1.5437622.7436523.0859375.0371094.1716309.0742188.2581787.1102295.5283813.2194824,1.0671387.4174194,1.6165161.5916748.0788574.0250244.1583862.0479126.2376709.0718994.5714722.1734619,1.1514282.3258667,1.7424316.4480591.0385742.0079956.0777588.0137329.1164551.0214844.6241455.1251831,1.257019.2246094,1.8995972.289856.0023804.0002441.0046387.0006104.007019.0008545.6186523.0626221,1.24646.0905151,1.8793335.0949097.0551758.0004272.1084595.0083008.1637573.0083008.0327148,0,.064209-.0046997.0968628-.0048828.5739136-.003418,1.1532593-.0344238,1.7362671-.0877075.1402588-.0127563.2797852-.0267334.4191895-.0423584.1203003-.0134888.239624-.020752.3602295-.036377.3216553-.041748.6365356-.1068115.9537354-.1641235.1898804-.0342407.3827515-.0586548.5707397-.0982056.5609131-.1186523,1.1140747-.2606201,1.6581421-.4263916.2907104-.0878906.5714722-.1962891.8564453-.296875.2533569-.09021.5078125-.1768188.7566528-.2769775.3476562-.138855.6865845-.2922363,1.024292-.4497681.1567383-.0736694.3128662-.147583.4674683-.2252197.3858643-.1923828.7645874-.3942871,1.1357422-.6103516.0497437-.0291138.0981445-.0601196.147583-.0896606,4.4541016-2.6445312,7.7833862-6.9597778,9.1353149-12.0909424.0350952-.1322021.0697632-.2644043.1022949-.3977051.0973511-.4030151.1841431-.80896.2565918-1.2211304.0124512-.0697021.0316772-.1367188.043396-.206665.036499-.2180786.0578613-.432373.0870972-.6486206.0341797-.2597046.074585-.5169067.0986938-.7797241.0528564-.5490112.0756836-1.0912476.0823364-1.6299438ZM33.2303467,19.7753517l-2.1298828-2.2424927c-.5327148-.5608521-1.223999-.4293213-1.7344971.0997314l-2.6723633,2.7694092c1.2890625,1.5632935,4.5489502,2.1199341,5.8410034,4.3252563,2.2481689,3.8373413-8.4970093,3.8032227-11.882019,6.7806396-.7664795.6742554-.8215332,1.7062378-.0916748,2.4439697,1.9855957,2.0071411,6.5397339,2.7062988,9.826416,2.7225342-2.9382324,2.0861206-6.5175171,3.3255005-10.3873291,3.3255005-3.1168823,0-6.0501709-.7979736-8.609314-2.197876-.3464966-.2784424-.6880493-.5751953-1.0229492-.8995972-.982666-.9519653-1.6140747-2.2573242-1.6233521-3.6112061-.0197754-2.8832397,3.5930176-4.4795532,5.9220581-5.1775513,5.2911377-1.5856323,8.828125-1.1373291,13.5316162-2.3512573.3096313-.0799561.7133789-.4641724.8182983-.7113647.4367676-1.0289917-1.7398071-2.5345459-2.5736694-3.1508789-1.7677002-1.3066406-.7774658-2.9135742-2.3552246-5.5241699-1.1609497-1.9208374-3.630249-2.4918213-5.5609131-6.4418945-.3825684-.7827759-.8441772-1.428772-1.5654907-2.0116577-.767395.7177734-1.3435059,1.3410645-1.9373779,2.1168823l-3.2148438,4.2000122c-.765625,1.0001831-1.5479736,1.727417-2.5853271,2.4326172-3.5731812,2.4290161-6.5564575,5.1529541-6.7700195,9.2890015-.288147-1.2764893-.4534912-2.5987549-.4534912-3.9610596C2,12.0746681,10.0747681,3.9999,20,3.9999s18,8.0747681,18,18c0,1.1989136-.123291,2.3689575-.3479614,3.5028687-.5159302-3.2435303-3.0928955-4.3284302-4.4216919-5.727417Z"></path>
</svg>
