<?xml version="1.0" encoding="UTF-8" standalone="no"?>
<svg viewBox="0 0 16 16" version="1.1" xmlns="http://www.w3.org/2000/svg" xmlns:svg="http://www.w3.org/2000/svg">
  <g fill="currentColor">
    <path d="m 13,4 c 0.6,0 1,0.4 1,1 v 6 c 0,0.6 -0.4,1 -1,1 H 3 C 2.4,12 2,11.6 2,11 V 5 C 2,4.4 2.4,4 3,4 H 13 M 13,3 H 3 C 1.9,3 1,3.9 1,5 v 6 c 0,1.1 0.9,2 2,2 h 10 c 1.1,0 2,-0.9 2,-2 V 5 C 15,3.9 14.1,3 13,3 Z"/>
    <path d="m 5.1656625,6.6707878 c 0.6,0 1,0.4 1,1 v 0.4667694 c 0,0.6 -0.4,1 -1,1 h -3e-7 c -0.6,0 -1,-0.4 -1,-1 V 7.6707878 c 0,-0.6 0.4,-1 1,-1 h 3e-7 m 0,-1 h -3e-7 c -1.1,0 -2,0.9 -2,2 v 0.4667694 c 0,1.1 0.9,2.0000028 2,2.0000028 h 3e-7 c 1.1,0 2,-0.9000028 2,-2.0000028 V 7.6707878 c 0,-1.1 -0.9,-2 -2,-2 z"/>
    <path d="m 10.92118,6.6553309 c 0.6,0 1,0.4 1,1 v 0.4667694 c 0,0.6 -0.4,1 -1,1 v 0 c -0.6,0 -1.0000055,-0.4 -1.0000055,-1 V 7.6553309 c 0,-0.6 0.4000055,-1 1.0000055,-1 v 0 m 0,-1 v 0 c -1.1000055,0 -2.0000055,0.9 -2.0000055,2 v 0.4667694 c 0,1.1 0.9,2.0000017 2.0000055,2.0000017 v 0 c 1.1,0 2,-0.9000017 2,-2.0000017 V 7.6553309 c 0,-1.1 -0.9,-2 -2,-2 z"/>
  </g>
</svg>
