<?xml version="1.0" encoding="UTF-8" standalone="no"?>
<svg viewBox="0 0 16 16" version="1.1" xmlns="http://www.w3.org/2000/svg" xmlns:svg="http://www.w3.org/2000/svg">
  <g fill="currentColor">
    <path d="m 13,4 c 0.6,0 1,0.4 1,1 v 6 c 0,0.6 -0.4,1 -1,1 H 3 C 2.4,12 2,11.6 2,11 V 5 C 2,4.4 2.4,4 3,4 H 13 M 13,3 H 3 C 1.9,3 1,3.9 1,5 v 6 c 0,1.1 0.9,2 2,2 h 10 c 1.1,0 2,-0.9 2,-2 V 5 C 15,3.9 14.1,3 13,3 Z"/>
    <path d="m 4.052835,6.9051311 c 0.486,0 0.81,0.324 0.81,0.8100001 v 0.3780832 c 0,0.486 -0.324,0.81 -0.81,0.81 h -3e-7 c -0.486,0 -0.81,-0.324 -0.81,-0.81 V 7.7151312 c 0,-0.4860001 0.324,-0.8100001 0.81,-0.8100001 h 3e-7 m 0,-0.81 h -3e-7 c -0.891,0 -1.62,0.7290001 -1.62,1.62 v 0.3780833 c 0,0.891 0.729,1.6200023 1.62,1.6200023 h 3e-7 c 0.891,0 1.62,-0.7290023 1.62,-1.6200023 V 7.7151312 c 0,-0.891 -0.729,-1.6200001 -1.62,-1.6200001 z"/>
    <path d="m 7.981444,6.8649444 c 0.486,0 0.81,0.324 0.81,0.81 v 0.3780833 c 0,0.486 -0.324,0.81 -0.81,0.81 v 0 c -0.486,0 -0.81,-0.324 -0.81,-0.81 V 7.6749444 c 0,-0.486 0.324,-0.81 0.81,-0.81 v 0 m 0,-0.81 v 0 c -0.891,0 -1.62,0.729 -1.62,1.62 v 0.3780833 c 0,0.891 0.729,1.6200038 1.62,1.6200038 v 0 c 0.891,0 1.62,-0.7290038 1.62,-1.6200038 V 7.6749444 c 0,-0.891 -0.729,-1.62 -1.62,-1.62 z"/>
    <path d="m 11.885648,6.8896742 c 0.486,0 0.81,0.324 0.81,0.81 v 0.3780832 c 0,0.486 -0.324,0.81 -0.81,0.81 v 0 c -0.486,0 -0.810005,-0.324 -0.810005,-0.81 V 7.6996742 c 0,-0.486 0.324005,-0.81 0.810005,-0.81 v 0 m 0,-0.81 v 0 c -0.891007,0 -1.620017,0.729 -1.620017,1.62 v 0.3780832 c 0,0.891 0.72901,1.6200014 1.620017,1.6200014 v 0 c 0.891,0 1.62,-0.7290014 1.62,-1.6200014 V 7.6996742 c 0,-0.891 -0.729,-1.62 -1.62,-1.62 z"/>
  </g>
</svg>
